# 3ds Max Wavefront OBJ Exporter v0.97b - (c)2007 guruware
# File Created: 05.04.2013 06:08:57

#
# object 20255_Triangular_Prism
#

v  4.5973 -4.8484 -0.0000
v  0.0000 -4.8484 7.9628
v  -4.5973 -4.8484 -0.0000
v  -0.0000 4.8484 7.9628
v  -4.5973 4.8484 -0.0000
v  4.5973 4.8484 -0.0000
# 6 vertices

vn 0.0000 -1.0000 0.0000
vn -0.8660 -0.0000 0.5000
vn 0.8660 0.0000 0.5000
vn -0.0000 -0.0000 -1.0000
vn -0.0000 1.0000 -0.0000
# 5 vertex normals

g 20255_Triangular_Prism
f 1//1 2//1 3//1
f 3//2 2//2 4//2 5//2
f 2//3 1//3 6//3 4//3
f 1//4 3//4 5//4 6//4
f 6//5 5//5 4//5
# 3 polygons - 2 triangles
